<svg width="40" height="40" viewBox="0 0 40 40" fill="none" xmlns="http://www.w3.org/2000/svg">
<path d="M15.3846 0.289063C13.4022 0.288861 11.4391 0.679165 9.60742 1.43769C7.77578 2.19621 6.1115 3.3081 4.7096 4.70986C3.3077 6.11161 2.19564 7.77578 1.43693 9.60734C0.678224 11.4389 0.28772 13.402 0.28772 15.3844C0.287518 17.3671 0.677873 19.3303 1.43649 21.162C2.19511 22.9938 3.30714 24.6581 4.70906 26.06C6.11097 27.462 7.77533 28.574 9.60706 29.3326C11.4388 30.0912 13.402 30.4816 15.3846 30.4814C18.9077 30.4814 22.1431 29.2337 24.7123 27.2121L26.0585 28.5583C25.7821 29.0954 25.6842 29.7066 25.7791 30.3032C25.874 30.8997 26.1567 31.4504 26.5862 31.8752L33.6539 38.9906C34.7508 40.0891 36.5462 40.0891 37.6446 38.9906L38.9908 37.6445C39.5178 37.1141 39.8137 36.3968 39.8137 35.6491C39.8137 34.9014 39.5178 34.184 38.9908 33.6537L31.8754 26.586C31.4476 26.1595 30.8936 25.8823 30.2958 25.7959C29.6979 25.7094 29.0881 25.8181 28.557 26.106L27.2108 24.7598C28.9729 22.5362 30.0726 19.8611 30.384 17.0411C30.6954 14.2211 30.2057 11.3705 28.9712 8.81603C27.7367 6.26158 25.8073 4.10673 23.4042 2.59857C21.0012 1.0904 18.2218 0.289975 15.3846 0.289063ZM15.3846 3.07676C18.6488 3.07676 21.7794 4.37346 24.0875 6.6816C26.3956 8.98974 27.6923 12.1202 27.6923 15.3844C27.6923 18.6487 26.3956 21.7792 24.0875 24.0873C21.7794 26.3954 18.6488 27.6921 15.3846 27.6921C12.1204 27.6921 8.98993 26.3954 6.68179 24.0873C4.37365 21.7792 3.07695 18.6487 3.07695 15.3844C3.07695 12.1202 4.37365 8.98974 6.68179 6.6816C8.98993 4.37346 12.1204 3.07676 15.3846 3.07676ZM7.59541 11.4906C6.77485 12.8197 6.34216 14.3517 6.34618 15.9137C6.34436 17.0191 6.56074 18.114 6.98293 19.1357C7.40512 20.1573 8.02481 21.0856 8.80647 21.8672C9.58813 22.6489 10.5164 23.2686 11.538 23.6908C12.5597 24.113 13.6546 24.3294 14.76 24.3275C16.4978 24.324 18.1927 23.7869 19.6154 22.7891C19.2319 22.8246 18.8467 22.84 18.4616 22.8352C17.0337 22.8389 15.6192 22.5604 14.2993 22.0157C12.9794 21.471 11.7802 20.6709 10.7704 19.6613C9.76071 18.6517 8.96042 17.4526 8.41555 16.1327C7.87068 14.8129 7.59196 13.3985 7.59541 11.9706C7.59541 11.8106 7.58772 11.6506 7.59541 11.4906Z" fill="#ACA9A9"/>
</svg>
